# xmcd
#
# Track frame offsets: 
#        150
#        17170
#        40608
#        55106
#        69303
#        89170
#        100729
#        122151
#        153939
#        172277
#        188141
#
# Disc length: 2693 seconds
#
# Revision: 0
# Processed by: cddbd v1.5.2PL0 Copyright (c) Steve Scherf et al.
# Submitted via: ExactAudioCopy v0.95b3
#
DISCID=8f0a830b
DTITLE=Chicken Shack  - Unlucky Boy (1973) [FLAC] {Japan 2007} 
DYEAR=1900
DGENRE=
TTITLE0=You Know You Could Be Right
TTITLE1=Revelation
TTITLE2=Prudence's Party
TTITLE3=Too Late To Cry
TTITLE4=Stan The Man
TTITLE5=Unlucky Boy
TTITLE6=As Time Goes Passing
TTITLE7=Jammin' With The Ash
TTITLE8=He Knows The Rules
TTITLE9=As Time Goes Passing (single version)
TTITLE10=Doctor Brown (bonus track)
EXTD=
EXTT0=
EXTT1=
EXTT2=
EXTT3=
EXTT4=
EXTT5=
EXTT6=
EXTT7=
EXTT8=
EXTT9=
EXTT10=
PLAYORDER=
